<?xml version="1.0" encoding="UTF-8"?>
<svg width="1000px" height="500px" viewBox="0 0 1000 500" version="1.1" xmlns="http://www.w3.org/2000/svg" xmlns:xlink="http://www.w3.org/1999/xlink">
    <!-- Generator: Sketch 52.2 (67145) - http://www.bohemiancoding.com/sketch -->
    <title>Artboard</title>
    <desc>Created with Sketch.</desc>
    <g id="Artboard" stroke="none" stroke-width="1" fill="none" fill-rule="evenodd">
        <g id="Group" transform="translate(66.000000, 43.000000)">
            <path d="M16.8704131,12.9652574 C29.6065436,0.225897935 104.483737,0.96038944 229.302719,0.96038944 C448.936119,0.96038944 448.936119,0.96038944 668.56952,0.96038944 C774.185581,0.96038944 805.390327,-5.04204456 843.796167,12.9652574 C860.555983,20.8234129 859.39854,83.7939787 859.39854,123.410043 C859.39854,203.846705 864.19927,244.65921 864.19927,285.475761 C864.19927,319.089392 875.000913,380.314218 864.19927,397.121034 C855.93113,409.985845 749.020814,413.927849 638.564957,413.927849 C500.543967,413.927849 336.600461,414.820478 267.708559,410.326388 C157.291768,403.123468 32.4727858,423.531743 16.8704131,401.922981 C4.87799756,385.313888 10.8695005,327.492799 6.06877041,303.483063 C-2.0684274,262.786759 -0.14640399,184.633288 1.26804034,145.018805 C2.46822286,111.405175 2.46822286,27.371099 16.8704131,12.9652574 Z" id="Rectangle" fill="#072232" fill-rule="nonzero"></path>
            <path d="M127.206751,286.482286 C126.979337,270.631063 126.297094,250.250919 124.705194,225.794746 L123.795538,210.849307 L122.203638,195.450976 C121.066567,183.675782 120.839153,173.712156 120.611739,165.333652 C117.42794,164.88076 114.244141,164.88076 110.150685,165.107206 L99.917045,165.560098 C91.502719,166.01299 84.6802926,165.786544 79.2223514,164.88076 C78.767523,161.257623 78.3126945,156.955148 78.0852803,151.746889 L78.0852803,139.065911 C77.8578661,137.933681 78.0852803,136.575004 78.767523,135.216328 L80.8142509,131.140299 L109.92327,129.555177 C121.066567,128.875839 131.072792,128.875839 139.259704,128.649393 C161.091469,128.422947 180.421677,128.875839 197.250329,130.687407 C201.116371,140.198141 201.343785,151.067551 197.932572,163.522084 C195.203601,164.201422 192.019802,164.427868 188.381175,164.427868 C187.016689,164.654314 185.197376,164.654314 183.378062,164.654314 L178.602363,164.654314 C169.505795,164.654314 163.138197,164.427868 158.362498,165.333652 C157.680256,168.051005 157.225427,171.221249 157.452841,174.844386 C157.452841,176.203062 157.225427,177.788184 157.680256,179.599753 L157.680256,184.35512 L161.773712,279.009566 C162.001126,279.688905 162.001126,280.821135 162.001126,281.953365 L161.773712,283.764933 C161.546297,284.444271 161.546297,285.12361 161.546297,285.576502 C153.5868,286.708732 141.988675,287.161624 127.206751,286.482286 Z M305.177345,136.235681 C305.632495,136.009802 306.315222,136.009802 306.997948,135.783924 L308.590975,135.783924 L311.77703,135.332166 L321.790346,135.106287 L332.031237,134.654529 C337.493046,134.428651 340.22395,136.913318 340.451526,142.33441 C340.906676,150.917805 341.361827,161.534111 342.727279,173.731568 C344.092731,188.413692 341.134252,208.065151 333.85184,232.911822 L333.396689,235.170611 L332.713963,236.977641 C332.031237,238.558793 331.348511,240.139945 331.348511,240.817582 C329.300333,249.400977 325.886702,258.436131 317.921565,264.30898 C317.011263,264.986617 316.328537,265.890132 315.645811,266.793647 L313.370058,269.052436 C311.549455,271.311224 310.184003,272.666497 308.81855,273.795891 L306.770372,275.828801 C305.860071,276.506437 305.177345,276.958195 304.494619,277.635832 C302.901591,279.216983 301.080988,280.120499 299.715536,280.798135 C277.413151,289.833289 261.938026,284.638075 248.055929,277.409953 C224.160517,265.212496 215.967804,235.170611 214.147201,204.902847 C213.009324,187.510177 213.919625,167.632839 211.188721,144.819077 C210.961146,142.786167 211.416296,140.3015 211.416296,137.139197 L211.871447,129.007559 C223.932941,126.974649 235.311709,126.74877 246.007751,129.007559 L246.462902,131.266347 L246.690477,133.073378 C246.918053,134.880408 247.145628,136.235681 246.918053,137.139197 C246.462902,157.468292 248.283505,179.830296 249.648957,204.22521 C249.876532,208.065151 251.241984,213.034485 252.379861,219.359092 L253.972889,226.813094 C254.655615,229.749519 255.565916,232.234186 255.793492,234.267095 C256.476218,240.365824 261.2553,244.883401 267.62741,246.464552 C273.771945,248.497462 280.599206,246.690431 285.605864,241.04346 C299.715536,225.457821 304.039468,204.676968 305.860071,172.602174 C306.087646,168.310476 305.632495,163.115262 305.40492,157.016534 L305.177345,149.562532 L304.722194,141.882652 C304.722194,141.205016 304.722194,140.3015 304.949769,139.397985 L304.949769,138.720348 L305.177345,137.816833 L305.177345,136.235681 Z M508.557432,281.978901 C507.649791,283.332674 504.246137,283.332674 500.842483,283.332674 L496.985008,283.332674 L493.127534,283.783932 C487.227866,284.460819 477.243814,284.912077 477.243814,283.332674 L476.336173,280.850756 L475.882353,278.368838 C475.428532,276.338177 474.747801,274.758775 474.520891,273.405001 C472.024878,255.354686 470.890327,240.688806 469.528865,228.279214 C469.075044,223.992264 468.848134,218.57717 468.394314,212.033931 L467.713583,203.911289 L467.259762,195.563019 C467.259762,195.111761 467.032852,194.434874 466.805942,193.532358 L466.352121,191.727327 L465.44448,191.952956 L464.763749,191.952956 C464.309929,192.178585 463.856108,192.404214 463.629198,192.404214 L456.368069,205.265063 L452.737504,211.582673 L451.149133,214.967107 L448.88003,218.351541 C444.114914,219.479686 436.853785,219.930944 426.869733,219.479686 C422.104617,219.479686 419.154784,217.223396 417.339501,212.936447 C414.389668,205.490692 409.170731,197.593679 401.001961,189.922295 C398.732859,195.563019 398.959769,195.563019 399.413589,204.136918 C399.6405,208.198239 399.6405,212.710818 399.413589,217.674654 C399.413589,219.479686 399.413589,221.961604 398.959769,224.89478 L398.505948,228.504843 L398.505948,232.566164 C398.505948,237.755629 397.825218,242.268208 397.825218,245.878271 L397.825218,253.324026 C397.825218,259.867265 397.825218,262.123554 397.371397,267.31302 C397.144487,272.051228 397.598307,274.758775 397.144487,274.758775 C396.463756,275.210033 392.606281,274.758775 389.429537,274.984404 L385.572063,275.210033 L381.487678,275.210033 C375.3611,275.210033 366.511599,273.179372 366.511599,270.923083 L366.284689,269.118051 L366.057779,267.087391 L365.603958,263.477328 L366.057779,255.129057 L366.284689,246.780787 L366.96542,230.535504 C367.646151,218.57717 368.326882,200.978113 366.73851,178.41522 C366.284689,171.646352 365.830869,163.072452 363.334856,152.693521 L362.654125,150.211603 C361.746484,145.247766 359.931201,142.991477 361.973394,142.088961 L363.561766,141.412074 L364.923227,140.509559 C367.19233,139.381414 368.780702,138.704527 371.276715,138.253269 L372.865087,137.576382 L374.226549,137.350753 C376.722562,136.899496 378.991665,136.448238 381.033857,135.771351 C388.068076,134.868835 394.421563,137.576382 399.413589,142.765848 C403.724885,147.504056 409.397642,153.370408 415.297309,159.913647 L423.239169,168.261918 L431.407938,176.610188 L433.903952,178.41522 C435.038503,177.512704 435.946144,176.15893 436.853785,174.579528 L437.761426,172.548867 C438.215247,171.646352 438.669067,170.743836 439.122888,170.292578 C441.618901,166.908144 442.753452,163.974968 444.114914,161.267421 C445.022555,160.364905 445.703286,158.785502 446.157106,156.303584 L447.291658,153.596037 L448.653119,150.88849 C449.10694,149.760345 449.560761,148.180942 450.695312,146.150282 L452.737504,141.637703 L455.006607,137.350753 L455.914248,134.868835 L457.0488,133.063804 C457.0488,131.484401 488.362418,132.161288 488.362418,134.191948 C497.665739,161.041792 500.615573,188.794151 501.977034,212.710818 L502.884676,227.827956 L503.792317,243.396353 C504.019227,247.683303 505.153778,253.324026 505.834509,260.092894 L506.74215,268.892422 L508.330522,277.015064 C508.557432,277.691951 508.557432,278.368838 508.557432,279.045725 L508.557432,281.978901 Z M621.355778,286.972055 C618.395043,281.988299 617.02855,276.551475 613.612318,267.716635 L609.51284,256.842987 C607.918598,252.765369 606.552105,249.140819 604.957864,246.422407 C587.421206,245.289736 573.756277,244.383598 564.646325,243.93053 C564.646325,244.383598 564.418576,245.063201 563.963079,246.195873 L563.052083,249.367354 L561.002344,254.351109 C559.8636,257.975659 558.269359,261.373674 557.358363,264.092086 C556.902866,265.451292 556.219619,267.037032 555.764122,268.849307 L555.080875,271.794254 L554.397629,274.059597 C553.258885,278.36375 552.120141,285.15978 549.387155,284.027108 L540.049454,281.988299 L538.227464,281.308696 C536.633222,280.629093 535.494478,280.629093 534.583483,280.629093 L532.989241,280.176024 L531.167251,279.722956 C529.573009,279.269887 528.206516,279.043353 527.52327,279.043353 C525.018033,278.137215 522.968294,276.778009 521.146303,274.965734 C519.324313,273.606528 522.285047,267.490101 522.057299,267.94317 C523.196043,264.092086 524.790284,259.561399 526.840023,253.898041 L531.622748,239.852911 L540.049454,214.707599 L544.376681,201.568608 L548.931658,188.65615 C552.575638,178.23557 555.080875,169.400731 557.358363,162.151632 C558.724856,157.620945 561.002344,151.277984 563.73533,144.255419 L567.379311,134.967511 C569.42905,129.983756 570.567794,126.812275 571.023292,125.679603 L572.845282,125.453069 L574.667273,125.453069 C576.261514,125.453069 577.400258,125 578.311253,125 C580.133244,125 582.182983,125.226534 584.915969,125.679603 L586.737959,125.679603 C587.421206,125.906137 588.104452,125.906137 588.55995,126.132672 L592.203931,126.359206 C598.1254,126.812275 601.086134,127.718412 602.452627,133.608305 L602.908124,135.647114 L602.908124,137.459389 C602.908124,138.818595 603.363622,139.951267 603.591371,141.083938 L609.057342,154.22293 C611.107081,158.980151 612.701323,163.284304 614.295565,167.361922 C616.800802,173.478349 620.672531,179.821311 622.266773,188.203081 C622.494522,189.335753 623.405517,190.921494 623.861015,192.960303 L624.544261,195.905249 L625.683005,198.623661 L628.871488,209.270775 C630.693479,215.613737 633.654213,222.409767 637.070445,229.432332 C643.675161,242.797858 647.774639,254.577644 649.824378,264.545155 C651.190871,271.114651 651.646369,275.871872 650.963122,279.269887 C640.486677,284.706711 623.405517,290.37007 621.355778,286.972055 Z M584.733871,211.177635 C589.144289,211.630138 592.858326,210.725133 596.108108,209.141374 C594.947472,205.295103 592.858326,199.412571 590.304926,191.720029 L588.680035,187.421255 L587.055144,182.66998 C585.66238,178.823709 584.733871,175.656191 583.805362,172.941176 C577.770052,188.32626 574.52027,200.317576 574.52027,210.046379 L579.627071,210.27263 C581.948344,210.27263 583.573235,210.725133 584.733871,211.177635 Z M750.126669,136.235681 C750.58182,136.009802 751.264546,136.009802 751.947272,135.783924 L753.540299,135.783924 L756.726354,135.332166 L766.73967,135.106287 L776.980562,134.654529 C782.44237,134.428651 785.173274,136.913318 785.40085,142.33441 C785.856001,150.917805 786.311151,161.534111 787.676603,173.731568 C789.042056,188.413692 786.083576,208.065151 778.801164,232.911822 L778.346014,235.170611 L777.663288,236.977641 C776.980562,238.558793 776.297835,240.139945 776.297835,240.817582 C774.249657,249.400977 770.836027,258.436131 762.870889,264.30898 C761.960588,264.986617 761.277862,265.890132 760.595136,266.793647 L758.319382,269.052436 C756.498779,271.311224 755.133327,272.666497 753.767875,273.795891 L751.719697,275.828801 C750.809395,276.506437 750.126669,276.958195 749.443943,277.635832 C747.850915,279.216983 746.030313,280.120499 744.66486,280.798135 C722.362475,289.833289 706.887351,284.638075 693.005254,277.409953 C669.109841,265.212496 660.917128,235.170611 659.096525,204.902847 C657.958648,187.510177 658.86895,167.632839 656.138045,144.819077 C655.91047,142.786167 656.365621,140.3015 656.365621,137.139197 L656.820772,129.007559 C668.882266,126.974649 680.261034,126.74877 690.957075,129.007559 L691.412226,131.266347 L691.639802,133.073378 C691.867377,134.880408 692.094952,136.235681 691.867377,137.139197 C691.412226,157.468292 693.232829,179.830296 694.598281,204.22521 C694.825857,208.065151 696.191309,213.034485 697.329186,219.359092 L698.922213,226.813094 C699.604939,229.749519 700.515241,232.234186 700.742816,234.267095 C701.425542,240.365824 706.204625,244.883401 712.576735,246.464552 C718.721269,248.497462 725.54853,246.690431 730.555188,241.04346 C744.66486,225.457821 748.988792,204.676968 750.809395,172.602174 C751.03697,168.310476 750.58182,163.115262 750.354244,157.016534 L750.126669,149.562532 L749.671518,141.882652 C749.671518,141.205016 749.671518,140.3015 749.899094,139.397985 L749.899094,138.720348 L750.126669,137.816833 L750.126669,136.235681 Z" id="Tumau" fill="#FDBD08"></path>
            <g id="Group-3" transform="translate(40.000000, 27.000000)" fill-rule="nonzero">
                <path d="M215.981974,42.7254902 L216.165824,42.7254902 C221.068035,30.7530073 241.350568,16.4033132 248.526799,0.862745098 C260.487306,8.03538743 266.490282,30.6897051 286.714365,42.7254904 L287.140505,42.7254902 C299.056154,34.2043154 308.615698,10.4109754 319.36294,0.862745098 C328.927285,12.812076 356.349054,31.9007323 357.765924,42.7254904 L357.958937,42.7254902 C379.419765,26.0103518 384.212386,16.4202118 390.199081,0.862745098 C402.172285,8.04300222 412.951452,26.0822932 428.490397,42.7254903 L428.674247,42.7254902 C433.576458,30.7530073 453.858991,16.4033132 461.035222,0.862745098 C472.995728,8.03538743 478.998704,30.6897051 499.222788,42.7254904 L499.648928,42.7254902 C511.564577,34.2043154 521.124121,10.4109754 531.871363,0.862745098 C541.435707,12.812076 568.857476,31.9007323 570.274347,42.7254904 L570.467359,42.7254902 C591.928187,26.0103518 596.720808,16.4202118 602.707504,0.862745098 C614.680708,8.04300222 625.459875,26.0822932 640.99882,42.7254903 L641.18267,42.7254902 C646.084881,30.7530073 666.367413,16.4033132 673.543645,0.862745098 C685.504151,8.03538743 691.507127,30.6897051 711.731211,42.7254904 L712.157278,42.7254902 C724.073002,34.2043095 733.632545,10.4109742 744.379786,0.862745098 C753.94413,12.812076 781.365899,31.9007323 782.78277,42.7254904 L782.799387,42.7254902 C784.400204,55.4836601 780.798367,61.8627451 771.993874,61.8627451 C731.173047,61.8627451 31.978374,61.8627451 8.4042879,61.8627451 C-0.400204186,61.8627451 -2.00102093,55.4836601 3.60183767,42.7254902 L3.65740179,42.7254902 C8.55961275,30.7530073 28.8421455,16.4033132 36.0183767,0.862745098 C47.9788829,8.03538743 53.981859,30.6897051 74.2059426,42.7254904 L74.6320826,42.7254902 C86.5477313,34.2043154 96.1072752,10.4109754 106.854518,0.862745098 C116.418862,12.812076 143.840631,31.9007323 145.257502,42.7254904 L145.450514,42.7254902 C166.911342,26.0103518 171.703963,16.4202118 177.690658,0.862745098 C189.663862,8.04300222 200.443029,26.0822932 215.981974,42.7254903 Z" id="Combined-Shape" fill="#053348" transform="translate(391.751155, 31.362745) scale(1, -1) translate(-391.751155, -31.362745) "></path>
                <path d="M14.4073507,4.58823529 L20.4104135,10.5686275 L14.4073507,16.5490196 L8.4042879,10.5686275 L14.4073507,4.58823529 Z M62.431853,4.58823529 L68.4349158,10.5686275 L62.431853,16.5490196 L56.4287902,10.5686275 L62.431853,4.58823529 Z M110.456355,4.58823529 L116.459418,10.5686275 L110.456355,16.5490196 L104.453292,10.5686275 L110.456355,4.58823529 Z M158.480858,4.58823529 L164.48392,10.5686275 L158.480858,16.5490196 L152.477795,10.5686275 L158.480858,4.58823529 Z M206.50536,4.58823529 L212.508423,10.5686275 L206.50536,16.5490196 L200.502297,10.5686275 L206.50536,4.58823529 Z M254.529862,4.58823529 L260.532925,10.5686275 L254.529862,16.5490196 L248.526799,10.5686275 L254.529862,4.58823529 Z M302.554364,4.58823529 L308.557427,10.5686275 L302.554364,16.5490196 L296.551302,10.5686275 L302.554364,4.58823529 Z M350.578867,4.58823529 L356.58193,10.5686275 L350.578867,16.5490196 L344.575804,10.5686275 L350.578867,4.58823529 Z M398.603369,4.58823529 L404.606432,10.5686275 L398.603369,16.5490196 L392.600306,10.5686275 L398.603369,4.58823529 Z M446.627871,4.58823529 L452.630934,10.5686275 L446.627871,16.5490196 L440.624809,10.5686275 L446.627871,4.58823529 Z M494.652374,4.58823529 L500.655436,10.5686275 L494.652374,16.5490196 L488.649311,10.5686275 L494.652374,4.58823529 Z M542.676876,4.58823529 L548.679939,10.5686275 L542.676876,16.5490196 L536.673813,10.5686275 L542.676876,4.58823529 Z M590.701378,4.58823529 L596.704441,10.5686275 L590.701378,16.5490196 L584.698315,10.5686275 L590.701378,4.58823529 Z M638.725881,4.58823529 L644.728943,10.5686275 L638.725881,16.5490196 L632.722818,10.5686275 L638.725881,4.58823529 Z M686.750383,4.58823529 L692.753446,10.5686275 L686.750383,16.5490196 L680.74732,10.5686275 L686.750383,4.58823529 Z M30.0153139,4.58823529 L36.0183767,10.5686275 L30.0153139,16.5490196 L24.0122511,10.5686275 L30.0153139,4.58823529 Z M78.0398162,4.58823529 L84.042879,10.5686275 L78.0398162,16.5490196 L72.0367534,10.5686275 L78.0398162,4.58823529 Z M126.064319,4.58823529 L132.067381,10.5686275 L126.064319,16.5490196 L120.061256,10.5686275 L126.064319,4.58823529 Z M174.088821,4.58823529 L180.091884,10.5686275 L174.088821,16.5490196 L168.085758,10.5686275 L174.088821,4.58823529 Z M222.113323,4.58823529 L228.116386,10.5686275 L222.113323,16.5490196 L216.11026,10.5686275 L222.113323,4.58823529 Z M270.137825,4.58823529 L276.140888,10.5686275 L270.137825,16.5490196 L264.134763,10.5686275 L270.137825,4.58823529 Z M318.162328,4.58823529 L324.165391,10.5686275 L318.162328,16.5490196 L312.159265,10.5686275 L318.162328,4.58823529 Z M366.18683,4.58823529 L372.189893,10.5686275 L366.18683,16.5490196 L360.183767,10.5686275 L366.18683,4.58823529 Z M414.211332,4.58823529 L420.214395,10.5686275 L414.211332,16.5490196 L408.20827,10.5686275 L414.211332,4.58823529 Z M462.235835,4.58823529 L468.238897,10.5686275 L462.235835,16.5490196 L456.232772,10.5686275 L462.235835,4.58823529 Z M510.260337,4.58823529 L516.2634,10.5686275 L510.260337,16.5490196 L504.257274,10.5686275 L510.260337,4.58823529 Z M558.284839,4.58823529 L564.287902,10.5686275 L558.284839,16.5490196 L552.281776,10.5686275 L558.284839,4.58823529 Z M606.309342,4.58823529 L612.312404,10.5686275 L606.309342,16.5490196 L600.306279,10.5686275 L606.309342,4.58823529 Z M654.333844,4.58823529 L660.336907,10.5686275 L654.333844,16.5490196 L648.330781,10.5686275 L654.333844,4.58823529 Z M702.358346,4.58823529 L708.361409,10.5686275 L702.358346,16.5490196 L696.355283,10.5686275 L702.358346,4.58823529 Z M734.774885,4.58823529 L740.777948,10.5686275 L734.774885,16.5490196 L728.771822,10.5686275 L734.774885,4.58823529 Z M46.8238897,4.58823529 L52.8269525,10.5686275 L46.8238897,16.5490196 L40.820827,10.5686275 L46.8238897,4.58823529 Z M94.848392,4.58823529 L100.851455,10.5686275 L94.848392,16.5490196 L88.8453292,10.5686275 L94.848392,4.58823529 Z M142.872894,4.58823529 L148.875957,10.5686275 L142.872894,16.5490196 L136.869832,10.5686275 L142.872894,4.58823529 Z M190.897397,4.58823529 L196.900459,10.5686275 L190.897397,16.5490196 L184.894334,10.5686275 L190.897397,4.58823529 Z M238.921899,4.58823529 L244.924962,10.5686275 L238.921899,16.5490196 L232.918836,10.5686275 L238.921899,4.58823529 Z M286.946401,4.58823529 L292.949464,10.5686275 L286.946401,16.5490196 L280.943338,10.5686275 L286.946401,4.58823529 Z M334.970904,4.58823529 L340.973966,10.5686275 L334.970904,16.5490196 L328.967841,10.5686275 L334.970904,4.58823529 Z M382.995406,4.58823529 L388.998469,10.5686275 L382.995406,16.5490196 L376.992343,10.5686275 L382.995406,4.58823529 Z M431.019908,4.58823529 L437.022971,10.5686275 L431.019908,16.5490196 L425.016845,10.5686275 L431.019908,4.58823529 Z M479.04441,4.58823529 L485.047473,10.5686275 L479.04441,16.5490196 L473.041348,10.5686275 L479.04441,4.58823529 Z M527.068913,4.58823529 L533.071975,10.5686275 L527.068913,16.5490196 L521.06585,10.5686275 L527.068913,4.58823529 Z M575.093415,4.58823529 L581.096478,10.5686275 L575.093415,16.5490196 L569.090352,10.5686275 L575.093415,4.58823529 Z M623.117917,4.58823529 L629.12098,10.5686275 L623.117917,16.5490196 L617.114855,10.5686275 L623.117917,4.58823529 Z M671.14242,4.58823529 L677.145482,10.5686275 L671.14242,16.5490196 L665.139357,10.5686275 L671.14242,4.58823529 Z M719.166922,4.58823529 L725.169985,10.5686275 L719.166922,16.5490196 L713.163859,10.5686275 L719.166922,4.58823529 Z M751.583461,4.58823529 L757.586524,10.5686275 L751.583461,16.5490196 L745.580398,10.5686275 L751.583461,4.58823529 Z M767.191424,4.58823529 L773.194487,10.5686275 L767.191424,16.5490196 L761.188361,10.5686275 L767.191424,4.58823529 Z" id="Combined-Shape" fill="#FDBD08"></path>
            </g>
            <g id="Group-3" transform="translate(432.000000, 355.000000) scale(1, -1) translate(-432.000000, -355.000000) translate(40.000000, 324.000000)" fill-rule="nonzero">
                <path d="M215.981974,42.7254902 L216.165824,42.7254902 C221.068035,30.7530073 241.350568,16.4033132 248.526799,0.862745098 C260.487306,8.03538743 266.490282,30.6897051 286.714365,42.7254904 L287.140505,42.7254902 C299.056154,34.2043154 308.615698,10.4109754 319.36294,0.862745098 C328.927285,12.812076 356.349054,31.9007323 357.765924,42.7254904 L357.958937,42.7254902 C379.419765,26.0103518 384.212386,16.4202118 390.199081,0.862745098 C402.172285,8.04300222 412.951452,26.0822932 428.490397,42.7254903 L428.674247,42.7254902 C433.576458,30.7530073 453.858991,16.4033132 461.035222,0.862745098 C472.995728,8.03538743 478.998704,30.6897051 499.222788,42.7254904 L499.648928,42.7254902 C511.564577,34.2043154 521.124121,10.4109754 531.871363,0.862745098 C541.435707,12.812076 568.857476,31.9007323 570.274347,42.7254904 L570.467359,42.7254902 C591.928187,26.0103518 596.720808,16.4202118 602.707504,0.862745098 C614.680708,8.04300222 625.459875,26.0822932 640.99882,42.7254903 L641.18267,42.7254902 C646.084881,30.7530073 666.367413,16.4033132 673.543645,0.862745098 C685.504151,8.03538743 691.507127,30.6897051 711.731211,42.7254904 L712.157278,42.7254902 C724.073002,34.2043095 733.632545,10.4109742 744.379786,0.862745098 C753.94413,12.812076 781.365899,31.9007323 782.78277,42.7254904 L782.799387,42.7254902 C784.400204,55.4836601 780.798367,61.8627451 771.993874,61.8627451 C731.173047,61.8627451 31.978374,61.8627451 8.4042879,61.8627451 C-0.400204186,61.8627451 -2.00102093,55.4836601 3.60183767,42.7254902 L3.65740179,42.7254902 C8.55961275,30.7530073 28.8421455,16.4033132 36.0183767,0.862745098 C47.9788829,8.03538743 53.981859,30.6897051 74.2059426,42.7254904 L74.6320826,42.7254902 C86.5477313,34.2043154 96.1072752,10.4109754 106.854518,0.862745098 C116.418862,12.812076 143.840631,31.9007323 145.257502,42.7254904 L145.450514,42.7254902 C166.911342,26.0103518 171.703963,16.4202118 177.690658,0.862745098 C189.663862,8.04300222 200.443029,26.0822932 215.981974,42.7254903 Z" id="Combined-Shape" fill="#053348" transform="translate(391.751155, 31.362745) scale(1, -1) translate(-391.751155, -31.362745) "></path>
                <path d="M14.4073507,4.58823529 L20.4104135,10.5686275 L14.4073507,16.5490196 L8.4042879,10.5686275 L14.4073507,4.58823529 Z M62.431853,4.58823529 L68.4349158,10.5686275 L62.431853,16.5490196 L56.4287902,10.5686275 L62.431853,4.58823529 Z M110.456355,4.58823529 L116.459418,10.5686275 L110.456355,16.5490196 L104.453292,10.5686275 L110.456355,4.58823529 Z M158.480858,4.58823529 L164.48392,10.5686275 L158.480858,16.5490196 L152.477795,10.5686275 L158.480858,4.58823529 Z M206.50536,4.58823529 L212.508423,10.5686275 L206.50536,16.5490196 L200.502297,10.5686275 L206.50536,4.58823529 Z M254.529862,4.58823529 L260.532925,10.5686275 L254.529862,16.5490196 L248.526799,10.5686275 L254.529862,4.58823529 Z M302.554364,4.58823529 L308.557427,10.5686275 L302.554364,16.5490196 L296.551302,10.5686275 L302.554364,4.58823529 Z M350.578867,4.58823529 L356.58193,10.5686275 L350.578867,16.5490196 L344.575804,10.5686275 L350.578867,4.58823529 Z M398.603369,4.58823529 L404.606432,10.5686275 L398.603369,16.5490196 L392.600306,10.5686275 L398.603369,4.58823529 Z M446.627871,4.58823529 L452.630934,10.5686275 L446.627871,16.5490196 L440.624809,10.5686275 L446.627871,4.58823529 Z M494.652374,4.58823529 L500.655436,10.5686275 L494.652374,16.5490196 L488.649311,10.5686275 L494.652374,4.58823529 Z M542.676876,4.58823529 L548.679939,10.5686275 L542.676876,16.5490196 L536.673813,10.5686275 L542.676876,4.58823529 Z M590.701378,4.58823529 L596.704441,10.5686275 L590.701378,16.5490196 L584.698315,10.5686275 L590.701378,4.58823529 Z M638.725881,4.58823529 L644.728943,10.5686275 L638.725881,16.5490196 L632.722818,10.5686275 L638.725881,4.58823529 Z M686.750383,4.58823529 L692.753446,10.5686275 L686.750383,16.5490196 L680.74732,10.5686275 L686.750383,4.58823529 Z M30.0153139,4.58823529 L36.0183767,10.5686275 L30.0153139,16.5490196 L24.0122511,10.5686275 L30.0153139,4.58823529 Z M78.0398162,4.58823529 L84.042879,10.5686275 L78.0398162,16.5490196 L72.0367534,10.5686275 L78.0398162,4.58823529 Z M126.064319,4.58823529 L132.067381,10.5686275 L126.064319,16.5490196 L120.061256,10.5686275 L126.064319,4.58823529 Z M174.088821,4.58823529 L180.091884,10.5686275 L174.088821,16.5490196 L168.085758,10.5686275 L174.088821,4.58823529 Z M222.113323,4.58823529 L228.116386,10.5686275 L222.113323,16.5490196 L216.11026,10.5686275 L222.113323,4.58823529 Z M270.137825,4.58823529 L276.140888,10.5686275 L270.137825,16.5490196 L264.134763,10.5686275 L270.137825,4.58823529 Z M318.162328,4.58823529 L324.165391,10.5686275 L318.162328,16.5490196 L312.159265,10.5686275 L318.162328,4.58823529 Z M366.18683,4.58823529 L372.189893,10.5686275 L366.18683,16.5490196 L360.183767,10.5686275 L366.18683,4.58823529 Z M414.211332,4.58823529 L420.214395,10.5686275 L414.211332,16.5490196 L408.20827,10.5686275 L414.211332,4.58823529 Z M462.235835,4.58823529 L468.238897,10.5686275 L462.235835,16.5490196 L456.232772,10.5686275 L462.235835,4.58823529 Z M510.260337,4.58823529 L516.2634,10.5686275 L510.260337,16.5490196 L504.257274,10.5686275 L510.260337,4.58823529 Z M558.284839,4.58823529 L564.287902,10.5686275 L558.284839,16.5490196 L552.281776,10.5686275 L558.284839,4.58823529 Z M606.309342,4.58823529 L612.312404,10.5686275 L606.309342,16.5490196 L600.306279,10.5686275 L606.309342,4.58823529 Z M654.333844,4.58823529 L660.336907,10.5686275 L654.333844,16.5490196 L648.330781,10.5686275 L654.333844,4.58823529 Z M702.358346,4.58823529 L708.361409,10.5686275 L702.358346,16.5490196 L696.355283,10.5686275 L702.358346,4.58823529 Z M734.774885,4.58823529 L740.777948,10.5686275 L734.774885,16.5490196 L728.771822,10.5686275 L734.774885,4.58823529 Z M46.8238897,4.58823529 L52.8269525,10.5686275 L46.8238897,16.5490196 L40.820827,10.5686275 L46.8238897,4.58823529 Z M94.848392,4.58823529 L100.851455,10.5686275 L94.848392,16.5490196 L88.8453292,10.5686275 L94.848392,4.58823529 Z M142.872894,4.58823529 L148.875957,10.5686275 L142.872894,16.5490196 L136.869832,10.5686275 L142.872894,4.58823529 Z M190.897397,4.58823529 L196.900459,10.5686275 L190.897397,16.5490196 L184.894334,10.5686275 L190.897397,4.58823529 Z M238.921899,4.58823529 L244.924962,10.5686275 L238.921899,16.5490196 L232.918836,10.5686275 L238.921899,4.58823529 Z M286.946401,4.58823529 L292.949464,10.5686275 L286.946401,16.5490196 L280.943338,10.5686275 L286.946401,4.58823529 Z M334.970904,4.58823529 L340.973966,10.5686275 L334.970904,16.5490196 L328.967841,10.5686275 L334.970904,4.58823529 Z M382.995406,4.58823529 L388.998469,10.5686275 L382.995406,16.5490196 L376.992343,10.5686275 L382.995406,4.58823529 Z M431.019908,4.58823529 L437.022971,10.5686275 L431.019908,16.5490196 L425.016845,10.5686275 L431.019908,4.58823529 Z M479.04441,4.58823529 L485.047473,10.5686275 L479.04441,16.5490196 L473.041348,10.5686275 L479.04441,4.58823529 Z M527.068913,4.58823529 L533.071975,10.5686275 L527.068913,16.5490196 L521.06585,10.5686275 L527.068913,4.58823529 Z M575.093415,4.58823529 L581.096478,10.5686275 L575.093415,16.5490196 L569.090352,10.5686275 L575.093415,4.58823529 Z M623.117917,4.58823529 L629.12098,10.5686275 L623.117917,16.5490196 L617.114855,10.5686275 L623.117917,4.58823529 Z M671.14242,4.58823529 L677.145482,10.5686275 L671.14242,16.5490196 L665.139357,10.5686275 L671.14242,4.58823529 Z M719.166922,4.58823529 L725.169985,10.5686275 L719.166922,16.5490196 L713.163859,10.5686275 L719.166922,4.58823529 Z M751.583461,4.58823529 L757.586524,10.5686275 L751.583461,16.5490196 L745.580398,10.5686275 L751.583461,4.58823529 Z M767.191424,4.58823529 L773.194487,10.5686275 L767.191424,16.5490196 L761.188361,10.5686275 L767.191424,4.58823529 Z" id="Combined-Shape" fill="#FDBD08"></path>
            </g>
        </g>
    </g>
</svg>